<svg width="50" height="50" viewBox="0 0 50 50" fill="none" xmlns="http://www.w3.org/2000/svg">
<path fill-rule="evenodd" clip-rule="evenodd" d="M25.0002 9.58331C16.4858 9.58331 9.5835 16.4856 9.5835 25C9.5835 33.5144 16.4858 40.4166 25.0002 40.4166C33.5146 40.4166 40.4168 33.5144 40.4168 25C40.4168 16.4856 33.5146 9.58331 25.0002 9.58331ZM7.0835 25C7.0835 15.1049 15.1051 7.08331 25.0002 7.08331C34.8953 7.08331 42.9168 15.1049 42.9168 25C42.9168 34.8951 34.8953 42.9166 25.0002 42.9166C15.1051 42.9166 7.0835 34.8951 7.0835 25ZM18.996 30.9223C19.407 30.3677 20.1899 30.2513 20.7445 30.6624C21.9584 31.5622 23.4237 32.0833 25.0002 32.0833C26.5767 32.0833 28.0419 31.5622 29.2558 30.6624C29.8104 30.2513 30.5933 30.3677 31.0044 30.9223C31.4155 31.4769 31.2991 32.2598 30.7445 32.6709C29.1238 33.8722 27.1418 34.5833 25.0002 34.5833C22.8585 34.5833 20.8765 33.8722 19.2558 32.6709C18.7012 32.2598 18.5849 31.4769 18.996 30.9223Z" fill="#02040F"/>
<path d="M31.6668 22.5C31.6668 23.8807 30.9206 25 30.0002 25C29.0797 25 28.3335 23.8807 28.3335 22.5C28.3335 21.1193 29.0797 20 30.0002 20C30.9206 20 31.6668 21.1193 31.6668 22.5Z" fill="#02040F"/>
<path d="M21.6668 22.5C21.6668 23.8807 20.9206 25 20.0002 25C19.0797 25 18.3335 23.8807 18.3335 22.5C18.3335 21.1193 19.0797 20 20.0002 20C20.9206 20 21.6668 21.1193 21.6668 22.5Z" fill="#02040F"/>
</svg>
