<svg width="50" height="50" viewBox="0 0 50 50" fill="none" xmlns="http://www.w3.org/2000/svg">
<path fill-rule="evenodd" clip-rule="evenodd" d="M19.8093 10.6043C24.7138 5.90964 32.6439 5.90964 37.5485 10.6043C42.4838 15.3286 42.4838 23.0116 37.5485 27.7358L24.3017 40.4158C20.8183 43.7502 15.1922 43.7502 11.7088 40.4158C8.19449 37.0519 8.19448 31.5743 11.7088 28.2104L24.7649 15.7128C26.8273 13.7387 30.1493 13.7387 32.2117 15.7128C34.3048 17.7165 34.3048 20.9886 32.2117 22.9922L19.0602 35.581C18.5615 36.0584 17.7702 36.0411 17.2929 35.5424C16.8155 35.0437 16.8328 34.2524 17.3315 33.775L30.4829 21.1862C31.5477 20.167 31.5477 18.5381 30.4829 17.5188C29.3873 16.4701 27.5893 16.4701 26.4936 17.5188L13.4375 30.0164C10.9516 32.3959 10.9516 36.2303 13.4375 38.6099C15.9542 41.0189 20.0563 41.0189 22.573 38.6099L35.8198 25.9298C39.7267 22.19 39.7267 16.1501 35.8198 12.4103C31.882 8.64098 25.4758 8.64098 21.538 12.4103L10.8644 22.6273C10.3657 23.1047 9.57438 23.0874 9.09701 22.5887C8.61964 22.09 8.63694 21.2987 9.13565 20.8213L19.8093 10.6043Z" fill="#02040F"/>
</svg>
