<svg width="30" height="30" viewBox="0 0 30 30" fill="none" xmlns="http://www.w3.org/2000/svg">
<path d="M25 15C25 19.714 25 22.0711 23.5355 23.5355C22.0711 25 19.714 25 15 25C10.286 25 7.92893 25 6.46447 23.5355C5 22.0711 5 19.714 5 15C5 10.286 5 7.92893 6.46447 6.46447C7.92893 5 10.286 5 15 5" stroke="#02040F" stroke-opacity="0.6" stroke-width="1.5" stroke-linecap="round"/>
<path d="M19.1549 6.43427L21.5122 8.47724C23.1349 9.88358 23.9462 10.5867 23.9462 11.5C23.9462 12.4133 23.1349 13.1164 21.5122 14.5228L19.1549 16.5657C18.4414 17.1841 18.0846 17.4933 17.7923 17.3598C17.5 17.2264 17.5 16.7543 17.5 15.81V14.2857C14.5 14.2857 11.25 15.6786 10 18C10 10.5714 14.4444 8.71429 17.5 8.71429V7.18996C17.5 6.24574 17.5 5.77364 17.7923 5.64016C18.0846 5.50668 18.4414 5.81588 19.1549 6.43427Z" stroke="#02040F" stroke-opacity="0.6" stroke-width="1.5" stroke-linecap="round" stroke-linejoin="round"/>
</svg>
