<svg width="22" height="23" viewBox="0 0 22 23" fill="none" xmlns="http://www.w3.org/2000/svg">
<g clip-path="url(#clip0_5_135)">
<path d="M6.40092 14.1498L0.73062 19.7846C0.209304 20.3026 0.209304 21.1504 0.73062 21.6685C1.25194 22.1865 2.10513 22.1865 2.62645 21.6685L8.29675 16.0337C8.22971 15.0325 7.59005 14.4094 6.40092 14.1498Z" fill="#E5563A"/>
<path d="M6.40103 14.1498L7.29741 13.259C5.07782 10.1569 5.3658 5.82705 8.16468 3.0457C11.2869 -0.057143 16.349 -0.0569058 19.4712 3.04547C22.5933 6.14784 22.5933 11.1783 19.4712 14.2809C16.6723 17.0622 12.3152 17.3481 9.19348 15.1427L8.2971 16.0335L6.40103 14.1498Z" fill="#3A5066"/>
<path d="M13.8165 14.4981C10.5745 14.4981 7.94628 11.8864 7.94628 8.66463C7.94628 5.4429 10.5745 2.83118 13.8165 2.83118C17.0586 2.83118 19.6868 5.4429 19.6868 8.66463C19.6868 11.8864 17.0586 14.4981 13.8165 14.4981Z" fill="#CEE2F2"/>
<path d="M16.5708 11.8447C16.6929 11.8447 16.8151 11.7984 16.9081 11.7057C18.5938 10.0307 18.5938 7.3048 16.9081 5.62997C16.722 5.4448 16.4195 5.4448 16.2334 5.62997C16.0471 5.81514 16.0471 6.1153 16.2334 6.30047C17.5468 7.60591 17.5468 9.72979 16.2334 11.0352C16.0471 11.2204 16.0471 11.5206 16.2334 11.706C16.3265 11.7982 16.4489 11.8447 16.5708 11.8447Z" fill="white"/>
<path d="M10.2983 10.608C10.3591 10.608 10.4211 10.5964 10.481 10.5718C10.7244 10.4715 10.8399 10.1941 10.7389 9.95224C10.4209 9.19022 10.3963 8.34118 10.6705 7.56162C10.7573 7.31433 10.6261 7.04381 10.3772 6.9575C10.1291 6.87097 9.85616 7.0016 9.76955 7.24889C9.41787 8.24895 9.44913 9.33816 9.85711 10.3157C9.93346 10.498 10.1112 10.608 10.2983 10.608Z" fill="white"/>
</g>
<defs>
<clipPath id="clip0_5_135">
<rect width="21.7362" height="21.6" fill="white" transform="matrix(-1 0 0 1 21.932 0.599976)"/>
</clipPath>
</defs>
</svg>
