<svg width="94" height="498" viewBox="0 0 94 498" fill="none" xmlns="http://www.w3.org/2000/svg">
<g filter="url(#filter0_d_205_178)">
<rect x="6" y="2" width="82" height="486" rx="16" fill="#02040F"/>
<rect x="7.5" y="3.5" width="79" height="483" rx="14.5" stroke="#F8F8FF" stroke-width="3"/>
<g clip-path="url(#clip0_205_178)">
<g opacity="0.05" clip-path="url(#clip1_205_178)">
<path fill-rule="evenodd" clip-rule="evenodd" d="M-186.671 223.681L-172.573 224.273L-172.246 254.614L-171.918 284.955L-181.44 285.04C-186.678 285.088 -192.065 285.601 -193.414 286.18C-195.017 286.869 -191.732 287.264 -183.913 287.32L-171.96 287.406V318.01V348.613L-183.913 349.013L-195.866 349.413L-183.913 349.671L-171.96 349.927V380.575V411.222H-177.477C-180.511 411.222 -182.994 411.774 -182.994 412.448C-182.994 413.122 -180.511 413.674 -177.477 413.674H-171.96L-171.692 435.74C-171.173 478.421 -170.818 474.227 -175.025 475.062L-178.703 475.791L-175.025 476.299L-171.348 476.807L-170.666 489.066L-169.983 501.325L-169.747 488.76L-169.509 476.195L-156.33 476.199C-149.083 476.202 -135.291 476.564 -125.683 477.002L-108.213 477.802V507.646V537.489L-132.425 537.508C-148.51 537.52 -156.02 537.926 -154.798 538.715C-153.784 539.37 -142.905 539.912 -130.565 539.923L-108.17 539.941L-108.499 570.282L-108.826 600.623L-125.376 601.29L-141.926 601.958L-125.07 602.21L-108.213 602.462V633.02C-108.213 661.091 -108.387 663.623 -110.359 664.138C-112.402 664.671 -112.402 664.706 -110.359 664.841C-108.664 664.953 -108.174 666.209 -108.029 670.806L-107.846 676.629L-107.11 671.112C-106.437 666.064 -106.088 665.602 -103.003 665.672C-101.15 665.715 -87.4955 665.852 -72.662 665.978L-45.6921 666.209V696.817V727.426L-60.0965 727.814L-74.5009 728.202L-60.0965 728.466L-45.6921 728.729L-45.5707 735.165C-45.5045 738.706 -45.0301 744.636 -44.5176 748.344C-43.7024 754.239 -43.5639 753.429 -43.4131 741.887L-43.2402 728.687L-12.899 729.015L17.4422 729.342L17.7695 759.683L18.098 790.024L7.34927 790.252L-3.39825 790.482L7.02196 791.172L17.4422 791.863L18.1201 799.219L18.798 806.574L19.346 799.219C19.7089 794.349 20.4113 791.905 21.4264 791.986C22.2698 792.053 35.9227 792.191 51.7676 792.292L80.5764 792.476L80.6622 798.912C80.8044 809.482 82.8419 811.674 82.9424 801.364L83.0282 792.476L93.7549 792.322C99.6552 792.237 112.481 791.782 122.257 791.312C139.889 790.461 139.804 790.452 111.531 790.239L83.0282 790.024V759.356V728.687L113.369 729.015L143.711 729.342L144.344 759.99L144.979 790.637L145.57 759.99L146.162 729.342L177.423 728.729L208.684 728.117L177.451 727.124C160.274 726.577 146.207 726.025 146.191 725.898C146.175 725.769 146.337 712.288 146.549 695.937L146.936 666.209H176.89H206.845V689.428C206.845 703.586 207.323 712.944 208.071 713.406C208.872 713.901 209.297 705.859 209.297 690.186V666.209L220.636 666.075C226.872 666.003 235.286 665.532 239.331 665.029C245.074 664.317 242.587 664.078 227.992 663.937L209.297 663.757V633.109V602.462H239.944H270.592L270.759 605.833C270.923 609.147 270.935 609.152 271.495 606.14C271.809 604.454 272.699 602.669 273.474 602.174C274.499 601.519 274.465 601.268 273.35 601.255C272.166 601.24 271.818 594.279 271.818 570.589V539.941L278.867 539.923C282.744 539.912 286.743 539.369 287.755 538.715C289.036 537.888 286.889 537.521 280.685 537.508L271.775 537.489L272.104 507.148L272.431 476.807L292.045 476.147L311.66 475.487L295.57 475.227C286.72 475.085 277.713 474.616 275.556 474.184L271.63 473.398L271.937 448.747C272.106 435.187 272.496 421.749 272.804 418.884L273.363 413.674H295.27C309.057 413.674 317.176 413.219 317.176 412.448C317.176 411.676 309.003 411.222 295.11 411.222H273.044V381.369V351.516L283.158 350.729C288.721 350.296 301.27 349.839 311.047 349.713L328.823 349.482L305.53 348.639C292.72 348.174 280.17 347.723 277.641 347.635L273.044 347.475L273.044 317.441V287.406L301.546 287.284C317.742 287.215 328.725 286.738 326.984 286.18C325.298 285.641 312.473 285.145 298.481 285.077L273.044 284.955V254.92V224.886L286.835 224.741C294.421 224.661 308.074 224.204 317.176 223.725L333.726 222.854L320.128 222.643C312.65 222.528 298.996 222.072 289.787 221.631L273.044 220.828V190.983V161.139L300.933 161.016C316.821 160.948 327.504 160.472 325.758 159.913C324.072 159.374 311.521 158.877 297.868 158.81L273.044 158.687V128.822V98.9565L298.481 97.7747L323.919 96.593L298.674 96.3796L273.429 96.1663L272.58 66.6957C272.115 50.4869 272.061 36.6956 272.462 36.0483C272.872 35.3827 282.075 34.8052 293.65 34.7182C308.085 34.6103 312.487 34.2756 308.595 33.583C305.561 33.0436 296.044 32.5606 287.448 32.5103L271.818 32.4196V2.56531V-27.2901L281.197 -28.0821C286.356 -28.5186 292.837 -28.9855 295.602 -29.1191C298.365 -29.254 294.283 -29.6684 286.529 -30.0386L272.431 -30.7141L272.104 -61.0551L271.775 -91.396L276.394 -91.5579L281.012 -91.7184L276.722 -92.4773L272.431 -93.2349L271.754 -106.72L271.076 -120.205L270.835 -107.026L270.592 -93.8478H239.944H209.297V-123.72V-153.592L232.895 -154.772L256.494 -155.953L232.895 -156.16L209.297 -156.369V-186.955V-217.541L216.346 -217.983L223.395 -218.426L216.423 -218.658C209.53 -218.887 209.446 -218.933 208.977 -222.874L208.501 -226.858L207.522 -222.883L206.542 -218.909L176.966 -219.682C160.698 -220.108 147.143 -220.671 146.843 -220.934C146.542 -221.197 146.267 -234.773 146.23 -251.105L146.162 -280.797L154.131 -281.505L162.099 -282.213L153.876 -282.424L145.652 -282.636L145.234 -292.137L144.816 -301.637L144.57 -292.137L144.324 -282.636H113.676H83.0282L82.875 -303.17C82.7671 -317.642 82.4312 -322.076 81.7398 -318.187C81.2004 -315.153 80.7174 -305.912 80.6671 -297.653L80.5764 -282.636H49.9618H19.3484L18.9721 -300.105L18.5957 -317.574L18.3248 -300.105L18.0551 -282.636L-6.15656 -282.424L-30.3682 -282.212L-6.15656 -281.028L18.0551 -279.845V-249.979V-220.115H-12.5926H-43.2402L-43.4045 -243.101C-43.5173 -259.035 -43.8605 -264.206 -44.5226 -259.957C-45.0472 -256.586 -45.5253 -246.243 -45.5842 -236.971L-45.6921 -220.115L-49.0633 -219.957C-50.9169 -219.87 -60.7094 -219.417 -70.8232 -218.948L-89.2118 -218.097L-67.4519 -217.88L-45.6921 -217.663V-187.016V-156.369H-76.3042H-106.916L-107.298 -172.612L-107.678 -188.855L-107.946 -172.671L-108.213 -156.485L-115.875 -156.05L-123.537 -155.615L-115.875 -155.379L-108.213 -155.143V-124.495V-93.8478L-122.005 -93.7264C-129.589 -93.6603 -138.83 -93.1859 -142.539 -92.6734C-147.484 -91.9894 -143.801 -91.6951 -128.726 -91.5688L-108.17 -91.396L-108.499 -61.0551L-108.826 -30.7141L-137.635 -30.1011C-162.846 -29.5642 -165.003 -29.373 -154.915 -28.5688C-148.575 -28.0625 -135.474 -27.6494 -125.8 -27.6494H-108.213L-108.213 2.38513V32.4196H-138.861H-169.509L-169.729 10.66C-169.967 -12.6995 -170.509 -10.2661 -171.026 16.483L-171.348 33.0326L-175.638 33.7902L-179.929 34.549L-175.945 34.7096L-171.96 34.8715V65.4674V96.0634L-181.461 96.4814L-190.962 96.8994L-181.461 97.1458L-171.96 97.3922V128.04L-171.96 158.687L-180.848 158.773C-185.736 158.821 -190.839 159.333 -192.188 159.913C-193.805 160.608 -190.777 160.995 -183.3 161.053L-171.96 161.139V191.747V222.357L-186.365 222.723L-200.769 223.09L-186.671 223.681ZM-150.201 474.552C-139.582 474.112 -125.79 473.749 -119.553 473.746L-108.213 473.743L-108.213 443.708V413.674H-138.861H-169.509V444.514V475.352L-150.201 474.552ZM-139.167 410.936L-108.826 410.609L-108.498 380.881L-108.169 351.153L-126.886 351.147C-137.18 351.143 -150.983 350.784 -157.556 350.349L-169.509 349.557V380.411V411.265L-139.167 410.936ZM-157.556 348.28C-150.983 347.844 -137.18 347.485 -126.886 347.481L-108.169 347.475L-108.498 317.747L-108.826 288.019L-139.167 287.692L-169.509 287.363V318.217V349.071L-157.556 348.28ZM-138.861 284.955H-108.213V254.92L-108.213 224.886H-138.861H-169.509V254.92V284.955H-138.861ZM-163.82 221.987C-160.693 221.558 -146.892 221.208 -133.152 221.208H-108.169L-108.498 191.48L-108.826 161.752L-139.167 161.424L-169.509 161.096V191.931V222.767L-163.82 221.987ZM-138.861 158.687H-108.213V128.695V98.7026L-137.942 98.3545C-154.293 98.162 -168.084 98.1756 -168.589 98.384C-169.094 98.5924 -169.509 112.245 -169.509 128.725L-169.509 158.687H-138.861ZM-156.33 96.1614C-149.083 96.1589 -135.291 95.7973 -125.683 95.3585L-108.213 94.5592V64.7147V34.8715H-138.861H-169.509V65.5189V96.1663L-156.33 96.1614ZM-76.3397 663.757H-45.6921V633.908V604.058L-57.6447 603.266C-64.2192 602.831 -77.6527 602.472 -87.4992 602.468L-105.402 602.462L-106.194 611.841C-106.631 617 -106.987 630.791 -106.987 642.489V663.757H-76.3397ZM-106.09 -110.704L-105.693 -93.8478H-75.6925H-45.6921V-123.882V-153.917L-71.4361 -154.162C-85.5953 -154.297 -99.2483 -154.435 -101.777 -154.469L-106.374 -154.53L-106.431 -141.045C-106.462 -133.628 -106.308 -119.975 -106.09 -110.704ZM-103.003 600.783C-101.486 600.377 -87.9711 600.036 -72.9685 600.027L-45.6921 600.01L-45.6921 569.976V539.941H-75.7268H-105.762V570.732V601.522L-103.003 600.783ZM-75.7268 537.489H-45.6921V507.455V477.42H-75.7268H-105.762V507.455V537.489H-75.7268ZM-75.7268 473.743H-45.6921V443.708V413.674H-75.7268H-105.762V443.708L-105.762 473.743H-75.7268ZM-75.7268 411.222H-45.6921V381.188V351.153H-75.7268H-105.762V381.188V411.222H-75.7268ZM-75.7268 347.475H-45.6921V317.441V287.406H-75.7268H-105.762V317.441V347.475H-75.7268ZM-75.7268 284.955H-45.6921V254.92V224.886H-75.7268H-105.762L-105.762 254.92V284.955H-75.7268ZM-75.7268 221.208H-45.6921V191.173V161.139H-75.7268H-105.762V191.173V221.208H-75.7268ZM-75.7268 158.687H-45.6921V128.653L-45.6921 98.6181H-75.7268H-105.762V128.653V158.687H-75.7268ZM-75.7268 94.9404H-45.6921V64.9059V34.8715H-75.7268H-105.762V64.9059V94.9404H-75.7268ZM-75.7268 32.4196H-45.6921V2.38513V-27.6494H-75.7268H-105.762L-105.762 2.38513V32.4196H-75.7268ZM-100.073 -30.5474C-96.946 -30.9764 -83.4304 -31.327 -70.0386 -31.327H-45.6921V-61.3615V-91.396H-75.7268H-105.762V-60.5819V-29.7678L-100.073 -30.5474ZM-38.6431 727.065C-36.114 726.647 -22.3226 726.299 -7.99541 726.291L18.0551 726.278L18.0514 715.551C18.049 709.651 17.6861 696.135 17.246 685.517L16.4455 666.209H-13.398H-43.2402V697.017V727.825L-38.6431 727.065ZM-13.2055 663.757H16.8292V633.722V603.688H-13.2055H-43.2402V633.722V663.757H-13.2055ZM-13.2055 600.01H16.8292L16.8292 569.976V539.941H-13.2055H-43.2402V569.976L-43.2402 600.01H-13.2055ZM-13.2055 537.489H16.8292V507.455V477.42H-13.2055H-43.2402V507.455V537.489H-13.2055ZM-13.2055 473.743H16.8292V443.708V413.674H-13.2055H-43.2402V443.708V473.743H-13.2055ZM-13.2055 411.222H16.8292V381.188V351.153H-13.2055H-43.2402V381.188V411.222H-13.2055ZM-13.2055 347.475H16.8292V317.441V287.406H-13.2055H-43.2402V317.441V347.475H-13.2055ZM-13.2055 284.955H16.8292V254.92V224.886H-13.2055H-43.2402V254.92V284.955H-13.2055ZM-13.2055 221.208H16.8292V191.173V161.139H-13.2055H-43.2402V191.173V221.208H-13.2055ZM-13.2055 158.687H16.8292V128.653L16.8292 98.6181H-13.2055H-43.2402L-43.2402 128.653V158.687H-13.2055ZM-13.2055 94.9404H16.8292V64.9059V34.8715H-13.2055H-43.2402V64.9059V94.9404H-13.2055ZM-13.2055 32.4196H16.8292V2.38513V-27.6494H-13.2055H-43.2402V2.38513V32.4196H-13.2055ZM-13.2276 -31.327H16.8292V-61.3836V-91.4402L-12.899 -91.1116L-42.6273 -90.7831L-42.9558 -61.0551L-43.2844 -31.327H-13.2276ZM-13.2055 -93.8478H16.8292V-123.882V-153.917H-13.2055H-43.2402V-123.882V-93.8478H-13.2055ZM-13.3771 -156.369H16.4847L17.121 -186.097C17.4716 -202.446 17.5157 -216.238 17.2203 -216.744C16.9261 -217.25 3.20203 -217.663 -13.2778 -217.663H-43.2402V-187.016V-156.369H-13.3771ZM49.9287 790.024H80.5764V759.377V728.729H50.7268H20.8772L20.0852 740.682C19.65 747.255 19.2908 761.047 19.2872 771.329L19.281 790.024H49.9287ZM20.2372 -235.745L20.5805 -220.115H50.5784H80.5764V-250.15V-280.184H49.8331H19.0898L19.4919 -265.78C19.7125 -257.858 20.0484 -244.343 20.2372 -235.745ZM50.5417 726.278H80.5764V696.243V666.209H50.5417H20.5069V696.243V726.278H50.5417ZM50.5417 663.757H80.5764V633.722V603.688H50.5417H20.5069V633.722V663.757H50.5417ZM50.5417 600.01H80.5764V569.976V539.941H50.5417H20.5069V569.976L20.5069 600.01H50.5417ZM50.5417 537.489H80.5764V507.455V477.42H50.5417H20.5069V507.455V537.489H50.5417ZM50.5417 473.743H80.5764V443.708V413.674H50.5417H20.5069V443.708V473.743H50.5417ZM50.5417 411.222H80.5764V381.188V351.153H50.5417H20.5069V381.188V411.222H50.5417ZM50.5417 347.475H80.5764L80.5764 317.441V287.406H50.5417H20.5069V317.441V347.475H50.5417ZM50.5417 284.955H80.5764V254.92V224.886H50.5417H20.5069V254.92V284.955H50.5417ZM50.5417 221.208H80.5764V191.173V161.139H50.5417H20.5069V191.173V221.208H50.5417ZM50.5417 158.687H80.5764V128.653V98.6181H50.5417H20.5069L20.5069 128.653V158.687H50.5417ZM50.5417 94.9404H80.5764V64.9059V34.8715H50.5417H20.5069V64.9059V94.9404H50.5417ZM50.5417 32.4196H80.5764V2.38513V-27.6494H50.5417H20.5069V2.38513V32.4196H50.5417ZM50.5417 -31.327H80.5764V-61.3615V-91.396H50.5417H20.5069V-61.3615V-31.327H50.5417ZM50.5417 -93.8478H80.5764V-123.882V-153.917H50.5417H20.5069V-123.882V-93.8478H50.5417ZM50.5417 -156.369H80.5764V-187.016V-217.663H50.5417H20.5069V-187.016V-156.369H50.5417ZM113.857 726.278H144.686L143.899 716.164C143.467 710.602 143.109 697.085 143.105 686.13L143.098 666.209H113.063H83.0282V696.243V726.278H113.857ZM113.063 663.757H143.098V633.722V603.688H113.063H83.0282V633.722V663.757H113.063ZM113.063 600.01H143.098V569.976V539.941H113.063H83.0282V569.976V600.01H113.063ZM113.063 537.489H143.098V507.455V477.42H113.063H83.0282V507.455V537.489H113.063ZM113.063 473.743H143.098V443.708V413.674H113.063H83.0282V443.708V473.743H113.063ZM113.063 411.222H143.098V381.188V351.153H113.063H83.0282V381.188V411.222H113.063ZM113.063 347.475H143.098L143.098 317.441V287.406H113.063H83.0282V317.441L83.0282 347.475H113.063ZM113.063 284.955H143.098V254.92V224.886H113.063H83.0282V254.92V284.955H113.063ZM113.063 221.208H143.098V191.173V161.139H113.063H83.0282V191.173V221.208H113.063ZM113.063 158.687H143.098V128.653V98.6181H113.063H83.0282V128.653V158.687H113.063ZM113.063 94.9404H143.098V64.9059V34.8715H113.063H83.0282V64.9059V94.9404H113.063ZM113.063 32.4196H143.098V2.38513V-27.6494H113.063H83.0282V2.38513V32.4196H113.063ZM113.063 -31.327H143.098V-61.3615V-91.396H113.063H83.0282V-61.3615V-31.327H113.063ZM113.063 -93.8478H143.098V-123.882V-153.917H113.063H83.0282V-123.882V-93.8478H113.063ZM113.063 -156.369H143.098V-187.016V-217.663H113.063H83.0282V-187.016V-156.369H113.063ZM112.91 -220.115H142.791L143.557 -223.946C144.647 -229.398 144.511 -279.956 143.404 -280.447C142.898 -280.671 129.106 -280.659 112.756 -280.422L83.0282 -279.989V-250.053V-220.115H112.91ZM176.81 663.757H206.845V632.935V602.113L199.309 602.901C195.166 603.334 181.65 603.688 169.274 603.688H146.775V633.722V663.757H176.81ZM176.81 600.01H206.845V569.976V539.941H176.81H146.775V569.976V600.01H176.81ZM176.81 537.489H206.845V507.455V477.42H176.81H146.775V507.455V537.489H176.81ZM176.81 473.743H206.845V443.708V413.674H176.81H146.775V443.708V473.743H176.81ZM176.81 411.222H206.845V381.188V351.153H176.81H146.775V381.188V411.222H176.81ZM176.81 347.475H206.845L206.845 317.441V287.406H176.81H146.775V317.441L146.775 347.475H176.81ZM176.81 284.955H206.845V254.92V224.886H176.81H146.775V254.92V284.955H176.81ZM176.81 221.208H206.845V191.173V161.139H176.81H146.775V191.173V221.208H176.81ZM176.81 158.687H206.845V128.653V98.6181H176.81H146.775V128.653V158.687H176.81ZM176.81 94.9404H206.845V64.9059V34.8715H176.81H146.775V64.9059V94.9404H176.81ZM176.81 32.4196H206.845V2.38513V-27.6494H176.81H146.775V2.38513V32.4196H176.81ZM176.81 -31.327H206.845V-61.3615V-91.396H176.81H146.775V-61.3615V-31.327H176.81ZM176.81 -93.8478H206.845V-123.882V-153.917H176.81H146.775V-123.882V-93.8478H176.81ZM176.81 -156.369H206.845V-187.016V-217.663H176.81H146.775V-187.016V-156.369H176.81ZM229.72 600.431C240.953 600.873 254.745 601.236 260.368 601.236H270.592V570.589V539.941H239.944H209.297V569.783V599.625L229.72 600.431ZM239.944 537.489H270.592V507.66C270.592 491.252 270.363 477.599 270.083 477.319C269.804 477.037 256.012 476.964 239.436 477.156L209.297 477.504V507.497V537.489H239.944ZM239.331 473.743L269.366 473.743V443.708V413.674L239.331 413.674H209.297V443.708V473.743H239.331ZM239.331 411.222L269.366 411.222V381.188V351.153L239.331 351.153H209.297V381.188V411.222H239.331ZM239.331 347.475L269.366 347.475L269.366 317.441V287.406H239.331H209.297V317.441L209.297 347.475H239.331ZM239.331 284.955H269.366V254.92V224.886H239.331H209.297V254.92V284.955H239.331ZM239.331 221.208H269.366V191.173V161.139H239.331H209.297V191.173V221.208H239.331ZM239.331 158.687H269.366V128.653V98.6181H239.331H209.297V128.653V158.687H239.331ZM237.302 95.2028C252.705 95.3952 266.22 95.3756 267.337 95.1574C269.159 94.8007 269.366 91.704 269.366 64.8165V34.8715H239.331H209.297V64.8618V94.8521L237.302 95.2028ZM239.144 32.4196H268.991L269.787 18.6283C270.223 11.0424 270.583 -2.47186 270.586 -11.4062L270.592 -27.6494H239.944H209.297V2.38513V32.4196H239.144ZM221.862 -31.0255C228.773 -30.7031 242.427 -30.5008 252.203 -30.5768L269.979 -30.7141L270.306 -61.0551L270.635 -91.396H239.965H209.297V-61.5038V-31.6126L221.862 -31.0255Z" fill="black" fill-opacity="0.2"/>
<path fill-rule="evenodd" clip-rule="evenodd" d="M-132.425 223.38L-108.213 223.66V254.131V284.603L-125.069 285.799L-141.926 286.996L-125.069 287.201L-108.213 287.406V318.025V348.643L-128.747 349.01L-149.281 349.378L-128.747 349.653L-108.213 349.927V380.575V411.222L-117.101 411.367C-123.788 411.476 -125.078 411.744 -122.311 412.448C-120.288 412.963 -116.289 413.45 -113.423 413.529L-108.213 413.674L-108.213 444.275V474.877L-119.553 475.281L-130.893 475.686L-119.574 475.94L-108.255 476.195L-107.906 507.149L-107.556 538.103L-107.272 507.149L-106.987 476.195H-76.3396H-45.6919L-45.4774 495.503C-45.3597 506.123 -45.2224 519.775 -45.1709 525.844L-45.079 536.877L-66.5324 537.49L-87.9857 538.103L-75.7267 539.016C-68.9842 539.517 -59.183 539.932 -53.946 539.935L-44.4231 539.941L-44.7517 570.282L-45.079 600.623L-62.8546 601.269L-80.6303 601.917L-62.8546 602.495L-45.079 603.075L-44.4084 618.399L-43.7366 633.723L-43.489 618.092L-43.2401 602.462H-12.5924H18.0553V633.11V663.757L-4.31755 664.021L-26.6904 664.284L-4.62402 664.94L17.4423 665.596L18.0859 685.823L18.7283 706.051L19.3118 685.823L19.8941 665.596L50.2353 665.269L80.5766 664.94L80.7384 670.172C80.8266 673.049 81.2827 681.747 81.7522 689.501L82.6042 703.599L82.8163 684.291L83.0284 664.983H113.632H144.235L144.635 676.936L145.036 688.888L145.293 676.994L145.55 665.099L153.212 664.664L160.874 664.229L153.212 663.994L145.55 663.757V633.129V602.501L179.569 602.155L213.588 601.809L179.569 601.523L145.55 601.236V570.632V540.026L175.278 539.678C191.628 539.485 205.501 539.713 206.106 540.183C206.71 540.652 207.538 545.342 207.945 550.603L208.684 560.169L209.297 549.749L209.91 539.328L214.813 538.583L219.717 537.838L214.507 537.664L209.297 537.49V506.866V476.241L236.573 475.887L263.85 475.533L236.573 475.251L209.297 474.969V444.321V413.674L230.444 413.529C242.075 413.45 253.246 412.963 255.268 412.448C257.361 411.916 248.245 411.45 234.121 411.367L209.297 411.222V380.575V349.927H239.926H270.557L270.9 387.011L271.242 424.094L271.53 387.081L271.818 350.068L277.028 349.599L282.238 349.129L277.028 348.916L271.818 348.701V318.054C271.818 295.034 272.185 287.406 273.289 287.406C274.433 287.406 274.433 287.079 273.289 285.935C272.224 284.87 271.818 276.085 271.818 254.114L271.818 223.763L281.319 223.345L290.82 222.927L281.319 222.68L271.818 222.434V191.876C271.818 163.805 271.992 161.273 273.963 160.758C276.007 160.225 276.007 160.19 273.963 160.055C271.98 159.924 271.818 157.557 271.818 128.734V97.5554L275.189 97.0442L278.561 96.5342L275.222 96.3503L271.883 96.1664L271.509 78.0845L271.134 60.0024L270.863 78.0845L270.592 96.1664H239.945H209.297V65.519V34.8716H235.859C250.466 34.8716 262.158 34.6104 261.839 34.2917C261.52 33.9717 249.568 33.6592 235.277 33.5967L209.297 33.4814V2.33624V-28.8102L227.379 -29.1841L245.461 -29.5591L227.379 -29.8301L209.297 -30.101L209.104 -51.2477C208.952 -67.8207 208.721 -70.5385 208.03 -63.8132C207.546 -59.0935 207.082 -49.5781 206.997 -42.6665L206.845 -30.101H176.197H145.55V-60.7485V-91.3959H181.919C201.921 -91.3959 217.978 -91.7048 217.6 -92.0836C217.222 -92.4612 200.994 -92.8743 181.537 -93.0031L146.163 -93.2347L145.835 -124.158L145.508 -155.081L165.45 -155.452L185.392 -155.82L165.498 -156.095L145.604 -156.368L145.242 -179.354L144.879 -202.34L144.602 -179.354L144.324 -156.368H113.676H83.0284L82.8199 -185.484C82.6434 -210.054 82.4767 -212.494 81.7497 -201.114C81.2765 -193.697 80.8181 -180.596 80.7323 -171.999L80.5766 -156.368H49.9497H19.3241L18.9735 -186.709L18.6228 -217.05L18.3397 -186.709L18.0553 -156.368H-17.7008C-37.3656 -156.368 -53.1516 -156.064 -52.7801 -155.693C-52.4087 -155.32 -36.3186 -155.056 -17.0241 -155.103L18.0553 -155.19V-124.701V-94.2106L7.94153 -93.4235C2.37958 -92.9908 -11.4119 -92.6328 -22.7062 -92.6292L-43.2401 -92.6218L-43.5086 -118.672L-43.7783 -144.722L-44.428 -118.979L-45.079 -93.2347L-65.3064 -92.5752L-85.5339 -91.9169L-64.9791 -91.6558L-44.4231 -91.3959L-44.7517 -61.0549L-45.079 -30.714L-75.9853 -30.3866L-106.892 -30.0593L-107.3 -40.8068L-107.709 -51.5543L-107.961 -40.9171C-108.174 -31.946 -108.549 -30.193 -110.359 -29.7198C-112.402 -29.1865 -112.402 -29.1522 -110.359 -29.0174C-108.375 -28.8862 -108.213 -26.5177 -108.213 2.33624V33.5464L-118.327 33.9595L-128.441 34.3726L-118.327 34.6215L-108.213 34.8716V65.4871L-108.213 96.1027L-126.908 96.4754L-145.603 96.8481L-126.908 97.1202L-108.213 97.3923V127.916V158.441L-123.844 159.245C-145.559 160.364 -146.05 160.831 -125.682 160.997L-108.213 161.139V191.761V222.382L-132.425 222.742L-156.637 223.102L-132.425 223.38ZM-76.3396 474.969H-45.6919V444.321V413.674H-76.3396H-106.987L-106.987 444.321V474.969H-76.3396ZM-76.3396 411.222H-45.6919V380.575L-45.6919 349.927H-76.3396H-106.987V380.575V411.222H-76.3396ZM-76.3396 348.701H-45.6919V318.054V287.406H-76.3396H-106.987V318.054V348.701H-76.3396ZM-76.3396 284.955H-45.6919V254.307V223.66H-76.3396H-106.987V254.307V284.955H-76.3396ZM-76.3396 222.434H-45.6919V191.786V161.139H-76.3396H-106.987V191.786V222.434H-76.3396ZM-76.3396 158.687H-45.6919V128.04L-45.6919 97.3923H-76.3396H-106.987V128.04V158.687H-76.3396ZM-76.3396 96.1664H-45.6919V65.519V34.8716H-76.3396H-106.987V65.519L-106.987 96.1664H-76.3396ZM-105.009 33.2559C-103.069 33.9999 -47.0907 33.0032 -46.3024 32.2101C-46.0818 31.9882 -45.7385 18.2913 -45.5411 1.77234L-45.182 -28.2622L-76.0846 -28.5895L-106.987 -28.9168V1.78943C-106.987 28.9174 -106.757 32.5853 -105.009 33.2559ZM-12.5924 601.236H18.0553V570.589V539.941H-12.5924H-43.2401V570.589L-43.2401 601.236H-12.5924ZM-12.5924 537.49H18.0553V506.842V476.195H-12.5924H-43.2401V506.842V537.49H-12.5924ZM-12.5924 474.969H18.0553L18.0553 444.321V413.674H-12.5924H-43.2401V444.321V474.969H-12.5924ZM-12.5924 411.222H18.0553V380.575V349.927H-12.5924H-43.2401L-43.2401 380.575V411.222H-12.5924ZM-12.5924 348.701H18.0553V318.054V287.406H-12.5924H-43.2401V318.054V348.701H-12.5924ZM-12.5716 284.955H18.0982L17.7696 254.614L17.4423 224.273L-12.8989 223.945L-43.2401 223.617V254.286V284.955H-12.5716ZM-12.5924 222.434H18.0553V191.786V161.139H-12.5924H-43.2401V191.786V222.434H-12.5924ZM-12.5716 158.687H18.0982L17.7696 128.346L17.4423 98.0053L-12.8989 97.6779L-43.2401 97.3495L-43.2401 128.019V158.687H-12.5716ZM-12.5924 96.1664H18.0553V65.519V34.8716H-12.5924H-43.2401V65.519V96.1664H-12.5924ZM-12.5716 32.4197H18.0982L17.7696 2.0788L17.4423 -28.2622L-12.8989 -28.5895L-43.2401 -28.918V1.75146V32.4197H-12.5716ZM-12.5924 -30.101H18.0553V-60.7485V-91.3959H-12.5924H-43.2401V-60.7485V-30.101H-12.5924ZM49.9289 663.757H80.5766V633.11V602.462H49.9289H19.2812V633.11V663.757H49.9289ZM49.9289 601.236H80.5766V570.589V539.941H49.9289H19.2812V570.589V601.236H49.9289ZM49.9289 537.49H80.5766V506.842V476.195H49.9289H19.2812V506.842V537.49H49.9289ZM20.0989 474.151C20.5475 474.601 34.339 474.969 50.7466 474.969H80.5766L80.5766 444.321V413.674H49.9289H19.2812V443.504C19.2812 459.911 19.649 473.703 20.0989 474.151ZM49.908 411.222H80.5766V380.554V349.884L50.2353 350.213L19.8941 350.54L19.5668 380.881L19.2383 411.222H49.908ZM20.0989 347.884C20.5475 348.334 34.339 348.701 50.7466 348.701H80.5766V318.054V287.406H49.9289H19.2812V317.236C19.2812 333.644 19.649 347.435 20.0989 347.884ZM49.908 284.955H80.5766V254.286V223.617L50.2353 223.945L19.8941 224.273L19.5668 254.614L19.2383 284.955H49.908ZM20.0989 221.616C20.5475 222.066 34.339 222.434 50.7466 222.434H80.5766V191.786V161.139H49.9289H19.2812V190.969C19.2812 207.376 19.649 221.168 20.0989 221.616ZM49.908 158.687H80.5766V128.019V97.3495L50.2353 97.6779L19.8941 98.0053L19.5668 128.346L19.2383 158.687H49.908ZM20.0989 95.3488C20.5475 95.7987 34.339 96.1664 50.7466 96.1664H80.5766V65.519V34.8716H49.9289H19.2812V64.7014C19.2812 81.1088 19.649 94.9001 20.0989 95.3488ZM49.908 32.4197H80.5766L80.5766 1.75146V-28.918L50.2353 -28.5895L19.8941 -28.2622L19.5668 2.0788L19.2383 32.4197H49.908ZM49.9289 -30.101H80.5766V-60.7485V-91.3959H49.9289H19.2812V-60.7485V-30.101H49.9289ZM49.9289 -93.8477H80.5766V-124.495V-155.143H49.9289H19.2812V-124.495V-93.8477H49.9289ZM67.0916 -218.204C89.6789 -218.192 102.542 -218.358 95.676 -218.577C85.1185 -218.913 83.1068 -219.297 82.6398 -221.076C82.1212 -223.048 82.0783 -223.046 81.9447 -221.058C81.8147 -219.122 79.3408 -218.904 53.9131 -218.582C37.0715 -218.368 42.2927 -218.219 67.0916 -218.204ZM113.676 663.757H144.324V633.11V602.462H113.676H83.0284V633.11V663.757H113.676ZM113.676 601.236H144.324V570.589V539.941H113.676H83.0284V570.589V601.236H113.676ZM113.676 537.49H144.324V506.842V476.195H113.676H83.0284V506.842V537.49H113.676ZM113.676 474.969H144.324V444.321V413.674H113.676H83.0284V444.321L83.0284 474.969H113.676ZM113.676 411.222H144.324V380.575V349.927H113.676H83.0284V380.575V411.222H113.676ZM113.676 348.701H144.324V318.054V287.406H113.676H83.0284V318.054V348.701H113.676ZM113.697 284.955H144.367L144.038 254.614L143.711 224.273L113.37 223.945L83.0284 223.617V254.286V284.955H113.697ZM113.37 222.148L143.711 221.821L144.038 191.48L144.367 161.139H113.697H83.0284V191.807V222.477L113.37 222.148ZM113.697 158.687H144.367L144.038 128.346L143.711 98.0053L113.37 97.6779L83.0284 97.3495V128.019V158.687H113.697ZM113.676 96.1664H144.324V65.519V34.8716H113.676H83.0284V65.519V96.1664H113.676ZM113.697 32.4197H144.367L144.038 2.0788L143.711 -28.2622L113.37 -28.5895L83.0284 -28.918V1.75146L83.0284 32.4197H113.697ZM113.676 -30.101H144.324V-60.7485V-91.3959H113.676H83.0284V-60.7485V-30.101H113.676ZM112.757 -93.5658C129.107 -93.2324 142.898 -93.1919 143.404 -93.4763C143.911 -93.7595 144.324 -107.751 144.324 -124.568V-155.143H113.676H83.0284V-124.658V-94.1738L112.757 -93.5658ZM176.197 537.49H206.845V506.842V476.195H176.197H145.55V506.842V537.49H176.197ZM146.367 474.151C146.816 474.601 160.607 474.969 177.015 474.969H206.845V444.321V413.674H176.197H145.55V443.504C145.55 459.911 145.917 473.703 146.367 474.151ZM176.177 411.222H206.845V380.554V349.884L176.504 350.213L146.163 350.54L145.835 380.881L145.507 411.222H176.177ZM146.367 347.884C146.816 348.334 160.607 348.701 177.015 348.701H206.845V318.054V287.406H176.197H145.55V317.236C145.55 333.644 145.917 347.435 146.367 347.884ZM176.177 284.955H206.845V254.286L206.845 223.617L176.504 223.945L146.163 224.273L145.835 254.614L145.507 284.955H176.177ZM146.367 221.616C146.816 222.066 160.607 222.434 177.015 222.434H206.845V191.786V161.139H176.197H145.55V190.969C145.55 207.376 145.917 221.168 146.367 221.616ZM176.177 158.687H206.845V128.019V97.3495L176.504 97.6779L146.163 98.0053L145.835 128.346L145.507 158.687H176.177ZM176.197 96.1664H206.845V65.519V34.8716H176.197H145.55V65.519V96.1664H176.197ZM164.224 32.4259C174.518 32.4296 188.318 32.7888 194.892 33.2239L206.845 34.0159V2.54828V-28.918L176.504 -28.5895L146.163 -28.2622L145.835 2.0788L145.507 32.4197L164.224 32.4259ZM239.945 348.701H270.592V318.054V287.406H239.945H209.297V318.054V348.701H239.945ZM239.025 285.207C255.375 285.487 269.167 285.513 269.673 285.262C270.179 285.014 270.592 271.052 270.592 254.235L270.592 223.66H239.945H209.297L209.297 254.18V284.7L239.025 285.207ZM239.945 222.434H270.592V191.786V161.139H239.945H209.297V191.786V222.434H239.945ZM239.025 158.979C255.375 159.33 269.167 159.374 269.673 159.078C270.179 158.784 270.592 144.784 270.592 127.967V97.3923H239.945H209.297V127.868V158.343L239.025 158.979Z" fill="#F9FAFA"/>
</g>
<rect x="-1.21429" y="59.7857" width="96.4286" height="96.4286" rx="6.10902" stroke="#F9FAFA" stroke-width="3.57143"/>
<path fill-rule="evenodd" clip-rule="evenodd" d="M65.7497 97.2858C65.7497 98.1734 65.0302 98.8929 64.1426 98.8929H29.8569C28.9693 98.8929 28.2497 98.1734 28.2497 97.2858C28.2497 96.3982 28.9693 95.6787 29.8569 95.6787H64.1426C65.0302 95.6787 65.7497 96.3982 65.7497 97.2858Z" fill="#F2F6FA"/>
<path fill-rule="evenodd" clip-rule="evenodd" d="M65.7497 108C65.7497 108.888 65.0302 109.607 64.1426 109.607H29.8569C28.9693 109.607 28.2497 108.888 28.2497 108C28.2497 107.112 28.9693 106.393 29.8569 106.393H64.1426C65.0302 106.393 65.7497 107.112 65.7497 108Z" fill="#F2F6FA"/>
<path fill-rule="evenodd" clip-rule="evenodd" d="M65.7497 118.714C65.7497 119.602 65.0302 120.321 64.1426 120.321H29.8569C28.9693 120.321 28.2497 119.602 28.2497 118.714C28.2497 117.827 28.9693 117.107 29.8569 117.107H64.1426C65.0302 117.107 65.7497 117.827 65.7497 118.714Z" fill="#F2F6FA"/>
</g>
<rect x="9.5" y="5.5" width="75" height="479" rx="14.5" stroke="#F5F5F5" stroke-width="3"/>
</g>
<defs>
<filter id="filter0_d_205_178" x="0" y="0" width="94" height="498" filterUnits="userSpaceOnUse" color-interpolation-filters="sRGB">
<feFlood flood-opacity="0" result="BackgroundImageFix"/>
<feColorMatrix in="SourceAlpha" type="matrix" values="0 0 0 0 0 0 0 0 0 0 0 0 0 0 0 0 0 0 127 0" result="hardAlpha"/>
<feOffset dy="4"/>
<feGaussianBlur stdDeviation="3"/>
<feComposite in2="hardAlpha" operator="out"/>
<feColorMatrix type="matrix" values="0 0 0 0 0.0588235 0 0 0 0 0.0431373 0 0 0 0 0.0431373 0 0 0 0.1 0"/>
<feBlend mode="normal" in2="BackgroundImageFix" result="effect1_dropShadow_205_178"/>
<feBlend mode="normal" in="SourceGraphic" in2="effect1_dropShadow_205_178" result="shape"/>
</filter>
<clipPath id="clip0_205_178">
<rect x="8" y="4" width="78" height="482" rx="16" fill="white"/>
</clipPath>
<clipPath id="clip1_205_178">
<rect width="1297" height="610.502" fill="white" transform="matrix(0 -1 1 0 -259 893)"/>
</clipPath>
</defs>
</svg>
