<svg width="75" height="15" viewBox="0 0 75 15" fill="none" xmlns="http://www.w3.org/2000/svg">
<path d="M6.5388 3.34928C6.8159 2.38375 8.1841 2.38375 8.4612 3.34928L8.82752 4.6257C8.95411 5.06683 9.36473 5.36516 9.82339 5.34925L11.1505 5.3032C12.1544 5.26837 12.5772 6.56961 11.7446 7.13151L10.6438 7.87434C10.2634 8.13106 10.1066 8.61376 10.2635 9.04506L10.7174 10.293C11.0607 11.237 9.9538 12.0412 9.1621 11.423L8.11549 10.6056C7.75378 10.3232 7.24622 10.3232 6.88451 10.6056L5.8379 11.423C5.0462 12.0412 3.93929 11.237 4.28264 10.293L4.73655 9.04506C4.89342 8.61376 4.73658 8.13106 4.35616 7.87434L3.25541 7.13151C2.42276 6.56961 2.84556 5.26837 3.84946 5.3032L5.17661 5.34925C5.63527 5.36516 6.04589 5.06683 6.17248 4.6257L6.5388 3.34928Z" fill="#1F1B14"/>
<path d="M21.5388 3.34928C21.8159 2.38375 23.1841 2.38375 23.4612 3.34928L23.8275 4.6257C23.9541 5.06683 24.3647 5.36516 24.8234 5.34925L26.1505 5.3032C27.1544 5.26837 27.5772 6.56961 26.7446 7.13151L25.6438 7.87434C25.2634 8.13106 25.1066 8.61376 25.2635 9.04506L25.7174 10.293C26.0607 11.237 24.9538 12.0412 24.1621 11.423L23.1155 10.6056C22.7538 10.3232 22.2462 10.3232 21.8845 10.6056L20.8379 11.423C20.0462 12.0412 18.9393 11.237 19.2826 10.293L19.7365 9.04506C19.8934 8.61376 19.7366 8.13106 19.3562 7.87434L18.2554 7.13151C17.4228 6.56961 17.8456 5.26837 18.8495 5.3032L20.1766 5.34925C20.6353 5.36516 21.0459 5.06683 21.1725 4.6257L21.5388 3.34928Z" fill="#1F1B14"/>
<path d="M36.5388 3.34928C36.8159 2.38375 38.1841 2.38375 38.4612 3.34928L38.8275 4.6257C38.9541 5.06683 39.3647 5.36516 39.8234 5.34925L41.1505 5.3032C42.1544 5.26837 42.5772 6.56961 41.7446 7.13151L40.6438 7.87434C40.2634 8.13106 40.1066 8.61376 40.2635 9.04506L40.7174 10.293C41.0607 11.237 39.9538 12.0412 39.1621 11.423L38.1155 10.6056C37.7538 10.3232 37.2462 10.3232 36.8845 10.6056L35.8379 11.423C35.0462 12.0412 33.9393 11.237 34.2826 10.293L34.7365 9.04506C34.8934 8.61376 34.7366 8.13106 34.3562 7.87434L33.2554 7.13151C32.4228 6.56961 32.8456 5.26837 33.8495 5.3032L35.1766 5.34925C35.6353 5.36516 36.0459 5.06683 36.1725 4.6257L36.5388 3.34928Z" fill="#1F1B14"/>
<path d="M51.5388 3.34928C51.8159 2.38375 53.1841 2.38375 53.4612 3.34928L53.8275 4.6257C53.9541 5.06683 54.3647 5.36516 54.8234 5.34925L56.1505 5.3032C57.1544 5.26837 57.5772 6.56961 56.7446 7.13151L55.6438 7.87434C55.2634 8.13106 55.1066 8.61376 55.2635 9.04506L55.7174 10.293C56.0607 11.237 54.9538 12.0412 54.1621 11.423L53.1155 10.6056C52.7538 10.3232 52.2462 10.3232 51.8845 10.6056L50.8379 11.423C50.0462 12.0412 48.9393 11.237 49.2826 10.293L49.7365 9.04506C49.8934 8.61376 49.7366 8.13106 49.3562 7.87434L48.2554 7.13151C47.4228 6.56961 47.8456 5.26837 48.8495 5.3032L50.1766 5.34925C50.6353 5.36516 51.0459 5.06683 51.1725 4.6257L51.5388 3.34928Z" fill="#1F1B14"/>
<path d="M66.5388 3.34928C66.8159 2.38375 68.1841 2.38375 68.4612 3.34928L68.8275 4.6257C68.9541 5.06683 69.3647 5.36516 69.8234 5.34925L71.1505 5.3032C72.1544 5.26837 72.5772 6.56961 71.7446 7.13151L70.6438 7.87434C70.2634 8.13106 70.1066 8.61376 70.2635 9.04506L70.7174 10.293C71.0607 11.237 69.9538 12.0412 69.1621 11.423L68.1155 10.6056C67.7538 10.3232 67.2462 10.3232 66.8845 10.6056L65.8379 11.423C65.0462 12.0412 63.9393 11.237 64.2826 10.293L64.7365 9.04506C64.8934 8.61376 64.7366 8.13106 64.3562 7.87434L63.2554 7.13151C62.4228 6.56961 62.8456 5.26837 63.8495 5.3032L65.1766 5.34925C65.6353 5.36516 66.0459 5.06683 66.1725 4.6257L66.5388 3.34928Z" fill="#1F1B14"/>
</svg>
