<svg width="91" height="17" viewBox="0 0 91 17" fill="none" xmlns="http://www.w3.org/2000/svg">
<path d="M8.1441 3.1112C8.43345 2.16946 9.76655 2.16946 10.0559 3.1112L10.7476 5.36264C10.8801 5.7939 11.285 6.08303 11.7359 6.06842L14.0719 5.99271C15.0911 5.95968 15.5002 7.2944 14.6376 7.83815L12.8271 8.97936C12.4218 9.23481 12.2547 9.74177 12.4285 10.1882L13.2086 12.1916C13.5712 13.1227 12.4947 13.9512 11.6875 13.3624L9.68931 11.9049C9.33818 11.6487 8.86182 11.6487 8.51069 11.9049L6.51253 13.3624C5.70533 13.9512 4.62883 13.1227 4.99137 12.1916L5.7715 10.1882C5.94533 9.74177 5.77816 9.23481 5.3729 8.97936L3.56243 7.83815C2.6998 7.2944 3.1089 5.95968 4.12806 5.99271L6.46407 6.06842C6.91499 6.08303 7.31985 5.7939 7.45236 5.36264L8.1441 3.1112Z" fill="#1F1B14"/>
<path d="M26.3443 3.1112C26.6336 2.16946 27.9668 2.16946 28.2561 3.1112L28.9478 5.36264C29.0803 5.7939 29.4852 6.08303 29.9361 6.06842L32.2721 5.99271C33.2913 5.95968 33.7004 7.2944 32.8378 7.83815L31.0273 8.97936C30.622 9.23481 30.4549 9.74177 30.6287 10.1882L31.4088 12.1916C31.7714 13.1227 30.6949 13.9512 29.8877 13.3624L27.8895 11.9049C27.5384 11.6487 27.062 11.6487 26.7109 11.9049L24.7127 13.3624C23.9055 13.9512 22.829 13.1227 23.1916 12.1916L23.9717 10.1882C24.1455 9.74177 23.9784 9.23481 23.5731 8.97936L21.7626 7.83815C20.9 7.2944 21.3091 5.95968 22.3283 5.99271L24.6643 6.06842C25.1152 6.08303 25.52 5.7939 25.6526 5.36264L26.3443 3.1112Z" fill="#1F1B14"/>
<path d="M44.544 3.1112C44.8333 2.16946 46.1665 2.16946 46.4558 3.1112L47.1475 5.36264C47.28 5.7939 47.6849 6.08303 48.1358 6.06842L50.4718 5.99271C51.491 5.95968 51.9001 7.2944 51.0375 7.83815L49.227 8.97936C48.8217 9.23481 48.6546 9.74177 48.8284 10.1882L49.6085 12.1916C49.9711 13.1227 48.8946 13.9512 48.0874 13.3624L46.0892 11.9049C45.7381 11.6487 45.2617 11.6487 44.9106 11.9049L42.9124 13.3624C42.1052 13.9512 41.0287 13.1227 41.3913 12.1916L42.1714 10.1882C42.3452 9.74177 42.1781 9.23481 41.7728 8.97936L39.9623 7.83815C39.0997 7.2944 39.5088 5.95968 40.528 5.99271L42.864 6.06842C43.3149 6.08303 43.7198 5.7939 43.8523 5.36264L44.544 3.1112Z" fill="#1F1B14"/>
<path d="M62.7442 3.1112C63.0335 2.16946 64.3667 2.16946 64.656 3.1112L65.3477 5.36264C65.4802 5.7939 65.8851 6.08303 66.336 6.06842L68.672 5.99271C69.6912 5.95968 70.1003 7.2944 69.2377 7.83815L67.4272 8.97936C67.0219 9.23481 66.8548 9.74177 67.0286 10.1882L67.8087 12.1916C68.1713 13.1227 67.0948 13.9512 66.2876 13.3624L64.2894 11.9049C63.9383 11.6487 63.4619 11.6487 63.1108 11.9049L61.1126 13.3624C60.3054 13.9512 59.2289 13.1227 59.5915 12.1916L60.3716 10.1882C60.5454 9.74177 60.3783 9.23481 59.973 8.97936L58.1625 7.83815C57.2999 7.2944 57.709 5.95968 58.7282 5.99271L61.0642 6.06842C61.5151 6.08303 61.92 5.7939 62.0525 5.36264L62.7442 3.1112Z" fill="#1F1B14"/>
</svg>
