<svg width="132" height="133" viewBox="0 0 132 133" fill="none" xmlns="http://www.w3.org/2000/svg">
<path d="M15.282 118.186V14.7835C15.282 7.02281 21.5253 0.730713 29.2292 0.730713H106.865C112.229 0.730713 116.577 5.11182 116.577 10.5163V107.53C115.481 113.21 58.6479 115.15 15.282 118.186Z" fill="#565656"/>
<path d="M29.1118 0.730713V114.781L15.282 118.186V14.7835C15.282 7.02281 21.5253 0.730713 29.2292 0.730713" fill="#A51018"/>
<path d="M109.754 110.81H113.317C115.115 110.81 116.573 109.342 116.573 107.53C116.573 105.718 115.115 104.25 113.317 104.25H29.1079C21.4693 104.25 15.2781 110.488 15.2781 118.184C15.2781 125.881 21.4693 132.119 29.1079 132.119H113.317C115.115 132.119 116.573 130.65 116.573 128.838C116.573 127.027 115.115 125.558 113.317 125.558H109.754V110.81Z" fill="#A51018"/>
<path d="M29.9715 125.561H112.717V110.81H29.9715C25.929 110.81 22.6516 114.113 22.6516 118.186C22.6516 122.259 25.929 125.561 29.9715 125.561Z" fill="#F5CD94"/>
</svg>
