<svg width="132" height="133" viewBox="0 0 132 133" fill="none" xmlns="http://www.w3.org/2000/svg">
<g clip-path="url(#clip0_250_262)">
<path d="M15.282 118.186V14.7835C15.282 7.02281 21.5253 0.730713 29.2292 0.730713H106.865C112.229 0.730713 116.577 5.11182 116.577 10.5163V107.53C115.481 113.21 58.6479 115.15 15.282 118.186Z" fill="#565656"/>
<path d="M29.1118 0.730713V114.781L15.282 118.186V14.7835C15.282 7.02281 21.5253 0.730713 29.2292 0.730713" fill="#A51018"/>
<path d="M109.754 110.81H113.317C115.115 110.81 116.573 109.342 116.573 107.53C116.573 105.718 115.115 104.25 113.317 104.25H29.1079C21.4693 104.25 15.2781 110.488 15.2781 118.184C15.2781 125.881 21.4693 132.119 29.1079 132.119H113.317C115.115 132.119 116.573 130.65 116.573 128.838C116.573 127.027 115.115 125.558 113.317 125.558H109.754V110.81Z" fill="#A51018"/>
<path d="M29.9715 125.561H112.717V110.81H29.9715C25.929 110.81 22.6516 114.113 22.6516 118.186C22.6516 122.259 25.929 125.561 29.9715 125.561Z" fill="#F5CD94"/>
<path d="M15.282 118.186V14.7835C15.282 7.02281 21.5253 0.730713 29.2292 0.730713H106.865C112.229 0.730713 116.577 5.11182 116.577 10.5163V107.53C115.481 113.21 58.6478 115.15 15.282 118.186Z" fill="#565656"/>
<path d="M29.1118 0.730713V114.781L15.282 118.186V14.7835C15.282 7.02281 21.5253 0.730713 29.2292 0.730713" fill="black"/>
<path d="M109.754 110.81H113.317C115.115 110.81 116.573 109.342 116.573 107.53C116.573 105.718 115.115 104.25 113.317 104.25H29.1079C21.4693 104.25 15.2781 110.488 15.2781 118.184C15.2781 125.881 21.4693 132.119 29.1079 132.119H113.317C115.115 132.119 116.573 130.65 116.573 128.838C116.573 127.027 115.115 125.558 113.317 125.558H109.754V110.81Z" fill="black"/>
<path d="M45.1952 64.5408H92.2253C94.7449 64.5408 96.7879 62.4823 96.7879 59.9436V31.416C96.7879 28.8773 94.7449 26.8188 92.2253 26.8188H45.1952C42.6755 26.8188 40.6326 28.8773 40.6326 31.416V59.9436C40.6326 62.4823 42.6755 64.5408 45.1952 64.5408Z" fill="#F5CD94"/>
<path d="M29.9715 125.561H112.717V110.81H29.9715C25.929 110.81 22.6516 114.113 22.6516 118.186C22.6516 122.259 25.929 125.561 29.9715 125.561Z" fill="#F5CD94"/>
<path d="M94.4854 79.6564H42.9334C41.6627 79.6564 40.6311 78.6184 40.6311 77.3366C40.6311 76.0548 41.6613 75.0168 42.9334 75.0168H94.4854C95.7575 75.0168 96.7877 76.0548 96.7877 77.3366C96.7877 78.6184 95.7575 79.6564 94.4854 79.6564Z" fill="#F5CD94"/>
<path d="M94.4854 93.3968H42.9334C41.6627 93.3968 40.6311 92.3589 40.6311 91.0771C40.6311 89.7953 41.6613 88.7573 42.9334 88.7573H94.4854C95.7575 88.7573 96.7877 89.7953 96.7877 91.0771C96.7877 92.3589 95.7575 93.3968 94.4854 93.3968Z" fill="#F5CD94"/>
</g>
<defs>
<clipPath id="clip0_250_262">
<rect width="132" height="133" fill="white"/>
</clipPath>
</defs>
</svg>
