<svg width="132" height="133" viewBox="0 0 132 133" fill="none" xmlns="http://www.w3.org/2000/svg">
<path d="M15.2817 118.186V14.7835C15.2817 7.02281 21.5251 0.730713 29.2289 0.730713H106.864C112.228 0.730713 116.576 5.11182 116.576 10.5163V107.53C115.481 113.21 58.6476 115.15 15.2817 118.186Z" fill="#565656"/>
<path d="M29.1116 0.730713V114.781L15.2817 118.186V14.7835C15.2817 7.02281 21.5251 0.730713 29.2289 0.730713" fill="#736326"/>
<path d="M109.754 110.81H113.317C115.115 110.81 116.573 109.342 116.573 107.53C116.573 105.718 115.115 104.25 113.317 104.25H29.1077C21.469 104.25 15.2778 110.488 15.2778 118.184C15.2778 125.881 21.469 132.119 29.1077 132.119H113.317C115.115 132.119 116.573 130.65 116.573 128.838C116.573 127.027 115.115 125.558 113.317 125.558H109.754V110.81Z" fill="#736326"/>
<path d="M45.1949 64.5408H92.225C94.7447 64.5408 96.7876 62.4823 96.7876 59.9436V31.416C96.7876 28.8773 94.7447 26.8188 92.225 26.8188H45.1949C42.6753 26.8188 40.6323 28.8773 40.6323 31.416V59.9436C40.6323 62.4823 42.6753 64.5408 45.1949 64.5408Z" fill="#F5CD94"/>
<path d="M29.9713 125.561H112.717V110.81H29.9713C25.9288 110.81 22.6514 114.113 22.6514 118.186C22.6514 122.259 25.9288 125.561 29.9713 125.561Z" fill="#F5CD94"/>
<path d="M94.4852 79.6564H42.9332C41.6625 79.6564 40.6309 78.6184 40.6309 77.3366C40.6309 76.0548 41.661 75.0168 42.9332 75.0168H94.4852C95.7573 75.0168 96.7875 76.0548 96.7875 77.3366C96.7875 78.6184 95.7573 79.6564 94.4852 79.6564Z" fill="#F5CD94"/>
<path d="M94.4852 93.3968H42.9332C41.6625 93.3968 40.6309 92.3589 40.6309 91.0771C40.6309 89.7953 41.661 88.7573 42.9332 88.7573H94.4852C95.7573 88.7573 96.7875 89.7953 96.7875 91.0771C96.7875 92.3589 95.7573 93.3968 94.4852 93.3968Z" fill="#F5CD94"/>
</svg>
