<svg width="410" height="399" viewBox="0 0 410 399" fill="none" xmlns="http://www.w3.org/2000/svg">
<g clip-path="url(#clip0_250_84)">
<path d="M47.4666 354.557V44.3508C47.4666 21.0685 66.8588 2.19226 90.7874 2.19226H331.928C348.588 2.19226 362.094 15.3356 362.094 31.549V322.59C358.692 339.631 182.164 345.452 47.4666 354.557Z" fill="#565656"/>
<path d="M90.4228 2.19226V344.344L47.4666 354.557V44.3508C47.4666 21.0685 66.8587 2.19226 90.7873 2.19226" fill="#A51018"/>
<path d="M340.903 332.431H351.97C357.555 332.431 362.082 328.025 362.082 322.59C362.082 317.155 357.555 312.749 351.97 312.749H90.4109C66.6848 312.749 47.4546 331.463 47.4546 354.553C47.4546 377.642 66.6848 396.356 90.4109 396.356H351.97C357.555 396.356 362.082 391.95 362.082 386.515C362.082 381.08 357.555 376.674 351.97 376.674H340.903V332.431Z" fill="#A51018"/>
<path d="M93.0932 376.683H350.107V332.431H93.0932C80.5371 332.431 70.3572 342.338 70.3572 354.557C70.3572 366.776 80.5371 376.683 93.0932 376.683Z" fill="#F5CD94"/>
<path d="M47.4666 354.557V44.3508C47.4666 21.0685 66.8588 2.19226 90.7874 2.19226H331.928C348.588 2.19226 362.094 15.3356 362.094 31.549V322.59C358.692 339.631 182.164 345.452 47.4666 354.557Z" fill="#565656"/>
<path d="M90.4228 2.19226V344.344L47.4666 354.557V44.3508C47.4666 21.0685 66.8587 2.19226 90.7873 2.19226" fill="black"/>
<path d="M340.903 332.431H351.97C357.555 332.431 362.082 328.025 362.082 322.59C362.082 317.155 357.555 312.749 351.97 312.749H90.4109C66.6848 312.749 47.4546 331.463 47.4546 354.553C47.4546 377.642 66.6848 396.356 90.4109 396.356H351.97C357.555 396.356 362.082 391.95 362.082 386.515C362.082 381.08 357.555 376.674 351.97 376.674H340.903V332.431Z" fill="black"/>
<path d="M140.379 193.622H286.457C294.283 193.622 300.629 187.447 300.629 179.831V94.248C300.629 86.6318 294.283 80.4565 286.457 80.4565H140.379C132.553 80.4565 126.207 86.6318 126.207 94.248V179.831C126.207 187.447 132.553 193.622 140.379 193.622Z" fill="#F5CD94"/>
<path d="M93.0932 376.683H350.107V332.431H93.0932C80.5371 332.431 70.3572 342.338 70.3572 354.557C70.3572 366.776 80.5371 376.683 93.0932 376.683Z" fill="#F5CD94"/>
<path d="M293.478 238.969H133.354C129.407 238.969 126.203 235.855 126.203 232.01C126.203 228.165 129.403 225.051 133.354 225.051H293.478C297.429 225.051 300.629 228.165 300.629 232.01C300.629 235.855 297.429 238.969 293.478 238.969Z" fill="#F5CD94"/>
<path d="M293.478 280.19H133.354C129.407 280.19 126.203 277.076 126.203 273.231C126.203 269.386 129.403 266.272 133.354 266.272H293.478C297.429 266.272 300.629 269.386 300.629 273.231C300.629 277.076 297.429 280.19 293.478 280.19Z" fill="#F5CD94"/>
</g>
<defs>
<clipPath id="clip0_250_84">
<rect width="410" height="399" fill="white"/>
</clipPath>
</defs>
</svg>
